<svg xmlns="http://www.w3.org/2000/svg" viewBox="0 0 1280 720" width="1280" height="720" fill="none">
  <defs>
    <linearGradient id="bg3" x1="0" y1="0" x2="1" y2="1">
      <stop offset="0" stop-color="#0c1526"/><stop offset="0.55" stop-color="#0a1020"/><stop offset="1" stop-color="#080a12"/>
    </linearGradient>
    <linearGradient id="acc3" x1="0" y1="0" x2="1" y2="0"><stop offset="0" stop-color="#ff9440"/><stop offset="1" stop-color="#f9723c"/></linearGradient>
    <linearGradient id="area3" x1="0" y1="0" x2="0" y2="1"><stop offset="0" stop-color="#ff8a3d" stop-opacity="0.5"/><stop offset="1" stop-color="#ff8a3d" stop-opacity="0"/></linearGradient>
    <radialGradient id="glow3" cx="0.8" cy="0.15" r="0.6"><stop offset="0" stop-color="#ff8a3d" stop-opacity="0.25"/><stop offset="1" stop-color="#ff8a3d" stop-opacity="0"/></radialGradient>
  </defs>
  <rect width="1280" height="720" fill="url(#bg3)"/><rect width="1280" height="720" fill="url(#glow3)"/>
  <text x="60" y="82" fill="#e8eefb" font-family="Segoe UI,Arial" font-size="30" font-weight="700">Client Analytics</text>
  <text x="60" y="112" fill="#7d8aa5" font-family="Segoe UI,Arial" font-size="16">Performance across every engagement</text>
  <!-- KPI row -->
  <g font-family="Segoe UI,Arial">
    <rect x="60" y="150" width="270" height="112" rx="18" fill="#ffffff" fill-opacity="0.05" stroke="#ffffff" stroke-opacity="0.07"/>
    <text x="84" y="192" fill="#7d8aa5" font-size="14">Revenue Impact</text><text x="84" y="234" fill="#ffffff" font-size="32" font-weight="800">$4.2M</text>
    <rect x="350" y="150" width="270" height="112" rx="18" fill="#ffffff" fill-opacity="0.05" stroke="#ffffff" stroke-opacity="0.07"/>
    <text x="374" y="192" fill="#7d8aa5" font-size="14">Projects Delivered</text><text x="374" y="234" fill="#ffffff" font-size="32" font-weight="800">250+</text>
    <rect x="640" y="150" width="270" height="112" rx="18" fill="#ffffff" fill-opacity="0.05" stroke="#ffffff" stroke-opacity="0.07"/>
    <text x="664" y="192" fill="#7d8aa5" font-size="14">Avg. Rating</text><text x="664" y="234" fill="#ff9d55" font-size="32" font-weight="800">4.9/5</text>
    <rect x="930" y="150" width="290" height="112" rx="18" fill="#ffffff" fill-opacity="0.05" stroke="#ffffff" stroke-opacity="0.07"/>
    <text x="954" y="192" fill="#7d8aa5" font-size="14">Satisfaction</text><text x="954" y="234" fill="#ffffff" font-size="32" font-weight="800">98%</text>
  </g>
  <!-- revenue chart -->
  <rect x="60" y="286" width="720" height="394" rx="20" fill="#ffffff" fill-opacity="0.045" stroke="#ffffff" stroke-opacity="0.07"/>
  <text x="88" y="326" fill="#e8eefb" font-family="Segoe UI,Arial" font-size="18" font-weight="700">Growth Trend</text>
  <g stroke="#ffffff" stroke-opacity="0.06"><line x1="88" y1="400" x2="752" y2="400"/><line x1="88" y1="480" x2="752" y2="480"/><line x1="88" y1="560" x2="752" y2="560"/></g>
  <path d="M88 590 L180 560 L272 570 L364 500 L456 520 L548 440 L640 460 L752 360" fill="none" stroke="url(#acc3)" stroke-width="4" stroke-linecap="round" stroke-linejoin="round"/>
  <path d="M88 590 L180 560 L272 570 L364 500 L456 520 L548 440 L640 460 L752 360 L752 640 L88 640 Z" fill="url(#area3)"/>
  <!-- project cards -->
  <rect x="804" y="286" width="416" height="394" rx="20" fill="#ffffff" fill-opacity="0.045" stroke="#ffffff" stroke-opacity="0.07"/>
  <text x="832" y="326" fill="#e8eefb" font-family="Segoe UI,Arial" font-size="18" font-weight="700">Active Projects</text>
  <g font-family="Segoe UI,Arial" font-size="15" fill="#c3cde0">
    <g transform="translate(832,346)"><rect width="360" height="66" rx="12" fill="#ffffff" fill-opacity="0.04"/><rect x="16" y="20" width="26" height="26" rx="8" fill="url(#acc3)"/><text x="58" y="32">Logistics AI</text><text x="58" y="52" fill="#7d8aa5" font-size="13">On-time +32%</text><rect x="250" y="30" width="94" height="8" rx="4" fill="#ffffff" fill-opacity="0.1"/><rect x="250" y="30" width="80" height="8" rx="4" fill="url(#acc3)"/></g>
    <g transform="translate(832,424)"><rect width="360" height="66" rx="12" fill="#ffffff" fill-opacity="0.04"/><rect x="16" y="20" width="26" height="26" rx="8" fill="url(#acc3)"/><text x="58" y="32">Fraud Engine</text><text x="58" y="52" fill="#7d8aa5" font-size="13">Accuracy +45%</text><rect x="250" y="30" width="94" height="8" rx="4" fill="#ffffff" fill-opacity="0.1"/><rect x="250" y="30" width="90" height="8" rx="4" fill="url(#acc3)"/></g>
    <g transform="translate(832,502)"><rect width="360" height="66" rx="12" fill="#ffffff" fill-opacity="0.04"/><rect x="16" y="20" width="26" height="26" rx="8" fill="url(#acc3)"/><text x="58" y="32">Recommender</text><text x="58" y="52" fill="#7d8aa5" font-size="13">Sales +28%</text><rect x="250" y="30" width="94" height="8" rx="4" fill="#ffffff" fill-opacity="0.1"/><rect x="250" y="30" width="66" height="8" rx="4" fill="url(#acc3)"/></g>
    <g transform="translate(832,580)"><rect width="360" height="66" rx="12" fill="#ffffff" fill-opacity="0.04"/><rect x="16" y="20" width="26" height="26" rx="8" fill="url(#acc3)"/><text x="58" y="32">Predictive Ops</text><text x="58" y="52" fill="#7d8aa5" font-size="13">Downtime -35%</text><rect x="250" y="30" width="94" height="8" rx="4" fill="#ffffff" fill-opacity="0.1"/><rect x="250" y="30" width="84" height="8" rx="4" fill="url(#acc3)"/></g>
  </g>
</svg>
