<svg xmlns="http://www.w3.org/2000/svg" viewBox="0 0 1280 720" width="1280" height="720" fill="none">
  <defs>
    <linearGradient id="bg" x1="0" y1="0" x2="1" y2="1">
      <stop offset="0" stop-color="#0c1526"/><stop offset="0.55" stop-color="#0a1020"/><stop offset="1" stop-color="#080a12"/>
    </linearGradient>
    <linearGradient id="acc" x1="0" y1="0" x2="1" y2="0">
      <stop offset="0" stop-color="#ff9440"/><stop offset="1" stop-color="#f9436b"/>
    </linearGradient>
    <linearGradient id="area" x1="0" y1="0" x2="0" y2="1">
      <stop offset="0" stop-color="#ff8a3d" stop-opacity="0.55"/><stop offset="1" stop-color="#ff8a3d" stop-opacity="0"/>
    </linearGradient>
    <radialGradient id="glow" cx="0.8" cy="0.15" r="0.6">
      <stop offset="0" stop-color="#ff8a3d" stop-opacity="0.28"/><stop offset="1" stop-color="#ff8a3d" stop-opacity="0"/>
    </radialGradient>
  </defs>
  <rect width="1280" height="720" fill="url(#bg)"/>
  <rect width="1280" height="720" fill="url(#glow)"/>
  <!-- sidebar -->
  <rect x="40" y="40" width="86" height="640" rx="22" fill="#ffffff" fill-opacity="0.04" stroke="#ffffff" stroke-opacity="0.07"/>
  <rect x="70" y="70" width="26" height="26" rx="8" fill="url(#acc)"/>
  <g fill="#8ea0bd" fill-opacity="0.5"><rect x="72" y="130" width="22" height="22" rx="7"/><rect x="72" y="176" width="22" height="22" rx="7"/><rect x="72" y="222" width="22" height="22" rx="7"/><rect x="72" y="268" width="22" height="22" rx="7"/></g>
  <!-- header -->
  <text x="160" y="82" fill="#e8eefb" font-family="Segoe UI,Arial" font-size="30" font-weight="700">Security Overview</text>
  <text x="160" y="112" fill="#7d8aa5" font-family="Segoe UI,Arial" font-size="16">Real-time threat &amp; encryption monitoring</text>
  <rect x="1010" y="60" width="210" height="42" rx="21" fill="#ffffff" fill-opacity="0.05" stroke="#ffffff" stroke-opacity="0.08"/>
  <circle cx="1035" cy="81" r="6" fill="#39d98a"/><text x="1052" y="86" fill="#b9c4da" font-family="Segoe UI,Arial" font-size="14">All systems protected</text>
  <!-- KPI tiles -->
  <g>
    <rect x="160" y="150" width="270" height="110" rx="18" fill="#ffffff" fill-opacity="0.05" stroke="#ffffff" stroke-opacity="0.07"/>
    <text x="184" y="192" fill="#7d8aa5" font-family="Segoe UI,Arial" font-size="14">Threats Blocked</text>
    <text x="184" y="234" fill="#ffffff" font-family="Segoe UI,Arial" font-size="34" font-weight="800">12,480</text>
    <rect x="480" y="150" width="270" height="110" rx="18" fill="#ffffff" fill-opacity="0.05" stroke="#ffffff" stroke-opacity="0.07"/>
    <text x="504" y="192" fill="#7d8aa5" font-family="Segoe UI,Arial" font-size="14">Devices Secured</text>
    <text x="504" y="234" fill="#ffffff" font-family="Segoe UI,Arial" font-size="34" font-weight="800">3,204</text>
    <rect x="800" y="150" width="420" height="110" rx="18" fill="#ffffff" fill-opacity="0.05" stroke="#ffffff" stroke-opacity="0.07"/>
    <text x="824" y="192" fill="#7d8aa5" font-family="Segoe UI,Arial" font-size="14">Encryption Coverage</text>
    <text x="824" y="234" fill="#ff9d55" font-family="Segoe UI,Arial" font-size="34" font-weight="800">99.2%</text>
    <rect x="1000" y="182" width="196" height="10" rx="5" fill="#ffffff" fill-opacity="0.08"/>
    <rect x="1000" y="182" width="188" height="10" rx="5" fill="url(#acc)"/>
  </g>
  <!-- line chart card -->
  <rect x="160" y="286" width="640" height="394" rx="20" fill="#ffffff" fill-opacity="0.045" stroke="#ffffff" stroke-opacity="0.07"/>
  <text x="188" y="326" fill="#e8eefb" font-family="Segoe UI,Arial" font-size="18" font-weight="700">Threat Activity</text>
  <g stroke="#ffffff" stroke-opacity="0.06"><line x1="188" y1="380" x2="772" y2="380"/><line x1="188" y1="450" x2="772" y2="450"/><line x1="188" y1="520" x2="772" y2="520"/><line x1="188" y1="590" x2="772" y2="590"/></g>
  <path d="M188 560 L268 500 L348 540 L428 430 L508 470 L588 380 L668 420 L748 350" fill="none" stroke="url(#acc)" stroke-width="4" stroke-linecap="round" stroke-linejoin="round"/>
  <path d="M188 560 L268 500 L348 540 L428 430 L508 470 L588 380 L668 420 L748 350 L748 640 L188 640 Z" fill="url(#area)"/>
  <g fill="#ff9440"><circle cx="428" cy="430" r="5"/><circle cx="588" cy="380" r="5"/><circle cx="748" cy="350" r="5"/></g>
  <!-- protected devices list -->
  <rect x="824" y="286" width="396" height="394" rx="20" fill="#ffffff" fill-opacity="0.045" stroke="#ffffff" stroke-opacity="0.07"/>
  <text x="852" y="326" fill="#e8eefb" font-family="Segoe UI,Arial" font-size="18" font-weight="700">Protected Devices</text>
  <g font-family="Segoe UI,Arial" font-size="15" fill="#c3cde0">
    <g transform="translate(852,352)">
      <rect width="340" height="60" rx="12" fill="#ffffff" fill-opacity="0.04"/><rect x="16" y="18" width="24" height="24" rx="7" fill="url(#acc)"/><text x="56" y="30">Endpoint · Finance</text><text x="56" y="49" fill="#7d8aa5" font-size="13">Encrypted</text><circle cx="316" cy="30" r="6" fill="#39d98a"/>
    </g>
    <g transform="translate(852,424)">
      <rect width="340" height="60" rx="12" fill="#ffffff" fill-opacity="0.04"/><rect x="16" y="18" width="24" height="24" rx="7" fill="url(#acc)"/><text x="56" y="30">Server · Prod-EU</text><text x="56" y="49" fill="#7d8aa5" font-size="13">Encrypted</text><circle cx="316" cy="30" r="6" fill="#39d98a"/>
    </g>
    <g transform="translate(852,496)">
      <rect width="340" height="60" rx="12" fill="#ffffff" fill-opacity="0.04"/><rect x="16" y="18" width="24" height="24" rx="7" fill="url(#acc)"/><text x="56" y="30">Laptop · Field</text><text x="56" y="49" fill="#7d8aa5" font-size="13">Scanning…</text><circle cx="316" cy="30" r="6" fill="#ffb020"/>
    </g>
    <g transform="translate(852,568)">
      <rect width="340" height="60" rx="12" fill="#ffffff" fill-opacity="0.04"/><rect x="16" y="18" width="24" height="24" rx="7" fill="url(#acc)"/><text x="56" y="30">Mobile · Sales</text><text x="56" y="49" fill="#7d8aa5" font-size="13">Encrypted</text><circle cx="316" cy="30" r="6" fill="#39d98a"/>
    </g>
  </g>
</svg>
