<svg xmlns="http://www.w3.org/2000/svg" viewBox="0 0 1280 720" width="1280" height="720" fill="none">
  <defs>
    <linearGradient id="bg2" x1="0" y1="0" x2="1" y2="1">
      <stop offset="0" stop-color="#0c1526"/><stop offset="0.55" stop-color="#0a1020"/><stop offset="1" stop-color="#080a12"/>
    </linearGradient>
    <linearGradient id="acc2" x1="0" y1="0" x2="1" y2="0">
      <stop offset="0" stop-color="#ff9440"/><stop offset="1" stop-color="#ffb057"/>
    </linearGradient>
    <radialGradient id="globe" cx="0.5" cy="0.5" r="0.5">
      <stop offset="0" stop-color="#12233f"/><stop offset="1" stop-color="#0a1526"/>
    </radialGradient>
    <radialGradient id="glow2" cx="0.85" cy="0.2" r="0.6">
      <stop offset="0" stop-color="#ff8a3d" stop-opacity="0.26"/><stop offset="1" stop-color="#ff8a3d" stop-opacity="0"/>
    </radialGradient>
  </defs>
  <rect width="1280" height="720" fill="url(#bg2)"/>
  <rect width="1280" height="720" fill="url(#glow2)"/>
  <text x="60" y="82" fill="#e8eefb" font-family="Segoe UI,Arial" font-size="30" font-weight="700">Network Operations</text>
  <text x="60" y="112" fill="#7d8aa5" font-family="Segoe UI,Arial" font-size="16">Global routing &amp; signal quality</text>
  <rect x="1020" y="60" width="200" height="42" rx="21" fill="#ffffff" fill-opacity="0.05" stroke="#ffffff" stroke-opacity="0.08"/>
  <circle cx="1045" cy="81" r="6" fill="#39d98a"/><text x="1062" y="86" fill="#b9c4da" font-family="Segoe UI,Arial" font-size="14">99.98% uptime</text>
  <!-- globe / network map -->
  <rect x="60" y="150" width="740" height="530" rx="20" fill="#ffffff" fill-opacity="0.045" stroke="#ffffff" stroke-opacity="0.07"/>
  <circle cx="430" cy="415" r="210" fill="url(#globe)" stroke="#2a3c5c" stroke-opacity="0.6"/>
  <g stroke="#31456a" stroke-opacity="0.55" fill="none">
    <ellipse cx="430" cy="415" rx="210" ry="70"/><ellipse cx="430" cy="415" rx="210" ry="140"/>
    <line x1="220" y1="415" x2="640" y2="415"/><path d="M430 205 A210 210 0 0 1 430 625"/><path d="M430 205 A130 210 0 0 0 430 625"/>
  </g>
  <g stroke="url(#acc2)" stroke-width="2.5" fill="none" stroke-linecap="round">
    <path d="M300 330 Q430 240 560 350"/><path d="M320 500 Q470 560 600 470"/><path d="M290 430 Q430 480 580 300"/>
  </g>
  <g fill="#ff9440"><circle cx="300" cy="330" r="6"/><circle cx="560" cy="350" r="6"/><circle cx="320" cy="500" r="6"/><circle cx="600" cy="470" r="6"/><circle cx="580" cy="300" r="6"/></g>
  <g fill="#ff8a3d" fill-opacity="0.25"><circle cx="300" cy="330" r="14"/><circle cx="580" cy="300" r="14"/></g>
  <!-- right column: signal bars + routing -->
  <rect x="824" y="150" width="396" height="250" rx="20" fill="#ffffff" fill-opacity="0.045" stroke="#ffffff" stroke-opacity="0.07"/>
  <text x="852" y="190" fill="#e8eefb" font-family="Segoe UI,Arial" font-size="18" font-weight="700">Signal Quality</text>
  <g>
    <rect x="852" y="340" width="40" height="30" rx="6" fill="url(#acc2)"/>
    <rect x="912" y="300" width="40" height="70" rx="6" fill="url(#acc2)"/>
    <rect x="972" y="260" width="40" height="110" rx="6" fill="url(#acc2)"/>
    <rect x="1032" y="230" width="40" height="140" rx="6" fill="url(#acc2)"/>
    <rect x="1092" y="290" width="40" height="80" rx="6" fill="url(#acc2)" fill-opacity="0.6"/>
    <rect x="1152" y="250" width="40" height="120" rx="6" fill="url(#acc2)" fill-opacity="0.6"/>
  </g>
  <rect x="824" y="424" width="396" height="256" rx="20" fill="#ffffff" fill-opacity="0.045" stroke="#ffffff" stroke-opacity="0.07"/>
  <text x="852" y="464" fill="#e8eefb" font-family="Segoe UI,Arial" font-size="18" font-weight="700">Call Routing</text>
  <g font-family="Segoe UI,Arial" font-size="15" fill="#c3cde0">
    <g transform="translate(852,486)"><rect width="340" height="52" rx="12" fill="#ffffff" fill-opacity="0.04"/><text x="18" y="32">EU · West Hub</text><text x="250" y="32" fill="#ff9d55">-27% cost</text></g>
    <g transform="translate(852,548)"><rect width="340" height="52" rx="12" fill="#ffffff" fill-opacity="0.04"/><text x="18" y="32">US · East Hub</text><text x="250" y="32" fill="#39d98a">Optimal</text></g>
    <g transform="translate(852,610)"><rect width="340" height="52" rx="12" fill="#ffffff" fill-opacity="0.04"/><text x="18" y="32">APAC · Node 4</text><text x="250" y="32" fill="#39d98a">Optimal</text></g>
  </g>
</svg>
